<?xml version="1.0" encoding="UTF-8" standalone="no"?>
<!DOCTYPE svg PUBLIC "-//W3C//DTD SVG 1.1//EN"
 "http://www.w3.org/Graphics/SVG/1.1/DTD/svg11.dtd">
<!-- Generated by graphviz version 2.38.0 (20140413.2041)
 -->
<!-- Title: G Pages: 1 -->
<svg width="93pt" height="141pt"
 viewBox="0.00 0.00 92.85 140.70" xmlns="http://www.w3.org/2000/svg" xmlns:xlink="http://www.w3.org/1999/xlink">
<g id="graph0" class="graph" transform="scale(1 1) rotate(0) translate(4 136.697)">
<title>G</title>
<polygon fill="white" stroke="none" points="-4,4 -4,-136.697 88.8483,-136.697 88.8483,4 -4,4"/>
<!-- s2 -->
<g id="node1" class="node"><title>s2</title>
<polygon fill="none" stroke="black" points="27,-132.697 3.55271e-15,-114.697 27,-96.6967 54,-114.697 27,-132.697"/>
<text text-anchor="middle" x="27" y="-110.997" font-family="Times,serif" font-size="14.00">s2</text>
</g>
<!-- s0 -->
<g id="node2" class="node"><title>s0</title>
<ellipse fill="none" stroke="black" cx="27" cy="-22.8483" rx="18.724" ry="18.724"/>
<ellipse fill="none" stroke="black" cx="27" cy="-22.8483" rx="22.6977" ry="22.6977"/>
<text text-anchor="middle" x="27" y="-19.1483" font-family="Times,serif" font-size="14.00">s0</text>
</g>
<!-- s2&#45;&gt;s0 -->
<g id="edge2" class="edge"><title>s2&#45;&gt;s0</title>
<path fill="none" stroke="black" d="M27,-96.373C27,-84.9137 27,-69.5426 27,-55.9009"/>
<polygon fill="black" stroke="black" points="30.5001,-55.8996 27,-45.8996 23.5001,-55.8996 30.5001,-55.8996"/>
<text text-anchor="middle" x="35.5" y="-67.4967" font-family="Times,serif" font-size="14.00">w0</text>
</g>
<!-- s0&#45;&gt;s0 -->
<g id="edge1" class="edge"><title>s0&#45;&gt;s0</title>
<path fill="none" stroke="black" d="M48.4359,-31.6286C58.7465,-32.7126 67.8483,-29.7858 67.8483,-22.8483 67.8483,-18.404 64.113,-15.6057 58.7174,-14.4534"/>
<polygon fill="black" stroke="black" points="58.56,-10.9451 48.4359,-14.0681 58.2978,-17.9402 58.56,-10.9451"/>
<text text-anchor="middle" x="76.3483" y="-19.1483" font-family="Times,serif" font-size="14.00">w0</text>
</g>
</g>
</svg>
