<?xml version="1.0" encoding="UTF-8" standalone="no"?>
<!DOCTYPE svg PUBLIC "-//W3C//DTD SVG 1.1//EN"
 "http://www.w3.org/Graphics/SVG/1.1/DTD/svg11.dtd">
<!-- Generated by graphviz version 2.38.0 (20140413.2041)
 -->
<!-- Title: G Pages: 1 -->
<svg width="209pt" height="228pt"
 viewBox="0.00 0.00 209.00 227.70" xmlns="http://www.w3.org/2000/svg" xmlns:xlink="http://www.w3.org/1999/xlink">
<g id="graph0" class="graph" transform="scale(1 1) rotate(0) translate(4 223.697)">
<title>G</title>
<polygon fill="white" stroke="none" points="-4,4 -4,-223.697 205,-223.697 205,4 -4,4"/>
<!-- s3 -->
<g id="node1" class="node"><title>s3</title>
<ellipse fill="none" stroke="black" cx="35" cy="-196.848" rx="18.724" ry="18.724"/>
<ellipse fill="none" stroke="black" cx="35" cy="-196.848" rx="22.6977" ry="22.6977"/>
<text text-anchor="middle" x="35" y="-193.148" font-family="Times,serif" font-size="14.00">s3</text>
</g>
<!-- s0 -->
<g id="node2" class="node"><title>s0</title>
<ellipse fill="none" stroke="black" cx="69" cy="-105" rx="27" ry="18"/>
<text text-anchor="middle" x="69" y="-101.3" font-family="Times,serif" font-size="14.00">s0</text>
</g>
<!-- s3&#45;&gt;s0 -->
<g id="edge1" class="edge"><title>s3&#45;&gt;s0</title>
<path fill="none" stroke="black" d="M44.6115,-175.766C47.4646,-169.499 50.4941,-162.519 53,-156 55.9105,-148.429 58.7311,-140.078 61.1726,-132.406"/>
<polygon fill="black" stroke="black" points="64.5223,-133.421 64.1394,-122.833 57.836,-131.349 64.5223,-133.421"/>
<text text-anchor="middle" x="67.5" y="-144.8" font-family="Times,serif" font-size="14.00">w2</text>
</g>
<!-- s0&#45;&gt;s3 -->
<g id="edge8" class="edge"><title>s0&#45;&gt;s3</title>
<path fill="none" stroke="black" d="M50.3767,-118.45C43.2189,-124.348 35.8466,-132.066 32,-141 28.8794,-148.247 28.0895,-156.54 28.4495,-164.444"/>
<polygon fill="black" stroke="black" points="24.9783,-164.904 29.4861,-174.492 31.9413,-164.186 24.9783,-164.904"/>
<text text-anchor="middle" x="40.5" y="-144.8" font-family="Times,serif" font-size="14.00">w0</text>
</g>
<!-- s0&#45;&gt;s0 -->
<g id="edge4" class="edge"><title>s0&#45;&gt;s0</title>
<path fill="none" stroke="black" d="M95.7949,-107.619C105.78,-107.705 114,-106.832 114,-105 114,-103.855 110.789,-103.085 105.943,-102.689"/>
<polygon fill="black" stroke="black" points="105.896,-99.1858 95.7949,-102.381 105.684,-106.183 105.896,-99.1858"/>
<text text-anchor="middle" x="122.5" y="-101.3" font-family="Times,serif" font-size="14.00">w0</text>
</g>
<!-- s0&#45;&gt;s0 -->
<g id="edge6" class="edge"><title>s0&#45;&gt;s0</title>
<path fill="none" stroke="black" d="M95.2135,-109.711C113.696,-111.192 132,-109.621 132,-105 132,-101.245 119.917,-99.5046 105.472,-99.7778"/>
<polygon fill="black" stroke="black" points="105.027,-96.2955 95.2135,-100.289 105.375,-103.287 105.027,-96.2955"/>
<text text-anchor="middle" x="140.5" y="-101.3" font-family="Times,serif" font-size="14.00">w2</text>
</g>
<!-- s0&#45;&gt;s0 -->
<g id="edge7" class="edge"><title>s0&#45;&gt;s0</title>
<path fill="none" stroke="black" d="M94.7126,-111.145C120.877,-114.759 150,-112.711 150,-105 150,-98.2831 127.902,-95.863 104.91,-97.7398"/>
<polygon fill="black" stroke="black" points="104.273,-94.2886 94.7126,-98.8553 105.034,-101.247 104.273,-94.2886"/>
<text text-anchor="middle" x="158.5" y="-101.3" font-family="Times,serif" font-size="14.00">w2</text>
</g>
<!-- s1 -->
<g id="node4" class="node"><title>s1</title>
<ellipse fill="none" stroke="black" cx="27" cy="-18" rx="27" ry="18"/>
<text text-anchor="middle" x="27" y="-14.3" font-family="Times,serif" font-size="14.00">s1</text>
</g>
<!-- s0&#45;&gt;s1 -->
<g id="edge5" class="edge"><title>s0&#45;&gt;s1</title>
<path fill="none" stroke="black" d="M60.902,-87.6111C54.8592,-75.3817 46.4894,-58.4429 39.5783,-44.456"/>
<polygon fill="black" stroke="black" points="42.641,-42.7533 35.0732,-35.3385 36.3653,-45.8543 42.641,-42.7533"/>
<text text-anchor="middle" x="59.5" y="-57.8" font-family="Times,serif" font-size="14.00">w1</text>
</g>
<!-- s2 -->
<g id="node3" class="node"><title>s2</title>
<polygon fill="none" stroke="black" points="115,-214.848 88,-196.848 115,-178.848 142,-196.848 115,-214.848"/>
<text text-anchor="middle" x="115" y="-193.148" font-family="Times,serif" font-size="14.00">s2</text>
</g>
<!-- s2&#45;&gt;s0 -->
<g id="edge2" class="edge"><title>s2&#45;&gt;s0</title>
<path fill="none" stroke="black" d="M108.409,-182.975C101.556,-169.59 90.6477,-148.283 82.0431,-131.476"/>
<polygon fill="black" stroke="black" points="84.9638,-129.501 77.2911,-122.194 78.733,-132.691 84.9638,-129.501"/>
<text text-anchor="middle" x="102.5" y="-144.8" font-family="Times,serif" font-size="14.00">w3</text>
</g>
<!-- s1&#45;&gt;s3 -->
<g id="edge3" class="edge"><title>s1&#45;&gt;s3</title>
<path fill="none" stroke="black" d="M22.7804,-35.9597C18.2125,-56.5688 12.0733,-92.3851 16,-123 17.7975,-137.014 21.4649,-152.183 25.1025,-165.032"/>
<polygon fill="black" stroke="black" points="21.7897,-166.172 27.977,-174.773 28.5035,-164.191 21.7897,-166.172"/>
<text text-anchor="middle" x="24.5" y="-101.3" font-family="Times,serif" font-size="14.00">w0</text>
</g>
</g>
</svg>
